<svg width="80" height="80" viewBox="0 0 80 80" fill="none" xmlns="http://www.w3.org/2000/svg">
<g clip-path="url(#clip0)">
<path d="M71.9747 26.6762C71.9771 23.3759 71.4684 20.0952 70.4666 16.9509L67.929 17.761C70.6696 26.3795 69.2881 35.7804 64.184 43.2461L66.3795 44.7489C70.0355 39.4321 71.9871 33.1288 71.9747 26.6762Z" fill="url(#paint0_linear)"/>
<path d="M23.4817 2.46285L21.9779 0.263306C10.3071 8.24141 5.25032 22.9295 9.53607 36.4011L12.074 35.5914C8.14727 23.2408 12.7834 9.77689 23.4817 2.46285Z" fill="url(#paint1_linear)"/>
<path d="M14.2549 40.6922C13.8005 39.8611 13.3864 39.0043 13.0211 38.1453L10.5685 39.187C10.9682 40.1195 11.4213 41.0616 11.9156 41.9686L14.2549 40.6922Z" fill="url(#paint2_linear)"/>
<path d="M36.6003 25.4838C35.4152 24.8974 34.6672 23.6873 34.6725 22.3651V14.6861C34.6725 11.7431 37.0584 9.35721 40.0017 9.35721C42.9446 9.35721 45.3305 11.7431 45.3305 14.6861V22.3651C45.3359 23.6873 44.5878 24.8974 43.4027 25.4838C42.951 25.7094 42.6656 26.1712 42.6659 26.6762V29.3405C42.6659 29.9515 43.0816 30.4842 43.6744 30.6329L50.297 32.2887C52.0758 32.7338 53.3236 34.3319 53.324 36.1654V42.6627H55.9882V36.1654C55.9915 33.1078 53.91 30.4419 50.9431 29.7028L45.3305 28.3V27.4343C47.0023 26.2922 48.0001 24.3963 47.9951 22.3718V14.6861C47.9951 10.2716 44.4161 6.69263 40.0017 6.69263C35.5869 6.69263 32.0082 10.2716 32.0082 14.6861V22.3651C32.0006 24.392 32.9987 26.2908 34.6728 27.4343V28.3L29.0613 29.7028C26.094 30.4412 24.0121 33.1075 24.0151 36.1654V42.6627H26.6794V36.1654C26.6797 34.3319 27.9275 32.7338 29.7064 32.2887L36.329 30.6329C36.9217 30.4842 37.3374 29.9519 37.3374 29.3405V26.6762C37.3374 26.1712 37.0521 25.7094 36.6003 25.4838Z" fill="url(#paint3_linear)"/>
<path d="M29.3436 38.666H32.0082V45.3273H29.3436V38.666Z" fill="url(#paint4_linear)"/>
<path d="M47.9948 38.666H50.6593V45.3273H47.9948V38.666Z" fill="url(#paint5_linear)"/>
<path d="M2.69954 77.3008C2.69987 75.467 3.94766 73.8688 5.72649 73.4241L12.3491 71.7679C12.9419 71.6196 13.3576 71.0869 13.3576 70.4758V67.8112C13.3602 67.3038 13.0745 66.8391 12.6208 66.6121C11.4377 66.0267 10.6903 64.8199 10.693 63.5001V55.8211C10.693 52.8781 13.0789 50.4922 16.0221 50.4922C18.9651 50.4922 21.351 52.8781 21.351 55.8211V63.5001C21.3563 64.8226 20.6083 66.0324 19.4231 66.6188C18.9694 66.8455 18.6837 67.3105 18.6864 67.8179V70.4825C18.6864 71.0935 19.1021 71.6263 19.6948 71.7746L26.3175 73.4308C28.094 73.8748 29.3411 75.4696 29.3444 77.3008V79.9651H32.0087V77.3008C32.0117 74.2432 29.9305 71.5769 26.9635 70.8382L21.351 69.4404V68.5746C23.0228 67.4325 24.0206 65.5367 24.0156 63.5121V55.8211C24.0156 51.4066 20.4366 47.8276 16.0221 47.8276C11.6074 47.8276 8.02871 51.4066 8.02871 55.8211V63.5001C8.02105 65.527 9.01914 67.4259 10.6933 68.5693V69.435L5.08176 70.8378C2.11448 71.5766 0.032614 74.2425 0.0352809 77.3005V79.9651H2.69954V77.3008Z" fill="url(#paint6_linear)"/>
<path d="M74.923 70.8382L69.3105 69.4404V68.5746C70.9823 67.4325 71.9801 65.5367 71.9748 63.5121V55.8211C71.9748 51.4066 68.3961 47.8276 63.9817 47.8276C59.5669 47.8276 55.9882 51.4066 55.9882 55.8211V63.5001C55.9806 65.527 56.9786 67.4259 58.6525 68.5693V69.435L53.0413 70.8378C50.074 71.5766 47.9918 74.2425 47.9948 77.3005V79.9651H50.6594V77.3005C50.6594 75.467 51.9075 73.8688 53.686 73.4238L60.3086 71.7679C60.9014 71.6193 61.3171 71.0869 61.3171 70.4758V67.8112C61.3197 67.3038 61.0344 66.8391 60.5803 66.6121C59.3975 66.0267 58.6498 64.8199 58.6528 63.5001V55.8211C58.6528 52.8781 61.0384 50.4922 63.9817 50.4922C66.9246 50.4922 69.3105 52.8781 69.3105 55.8211V63.5001C69.3158 64.8223 68.5681 66.0324 67.3826 66.6188C66.9289 66.8455 66.6432 67.3105 66.6459 67.8179V70.4821C66.6459 71.0932 67.062 71.6259 67.6547 71.7746L74.277 73.4304C76.0535 73.8748 77.3006 75.4696 77.3039 77.3005V79.9651H79.9685V77.3005C79.9712 74.2432 77.89 71.5769 74.923 70.8382Z" fill="url(#paint7_linear)"/>
<path d="M66.6459 26.6762C66.6632 11.9608 54.7484 0.0176872 40.033 1.88917e-05C25.3176 -0.0173161 13.3744 11.8975 13.3571 26.6129C13.3414 39.7968 22.97 51.0099 36.0049 52.9874V55.9851C35.2692 55.9851 34.6725 56.5814 34.6725 57.3172V74.6362C34.6725 77.5791 37.0584 79.965 40.0017 79.965C42.9446 79.965 45.3305 77.5791 45.3305 74.6362V57.3172C45.3305 56.5814 44.7338 55.9851 43.998 55.9851V52.9874C57.005 51.0062 66.6226 39.8332 66.6459 26.6762ZM16.0214 26.6762C16.0214 13.4323 26.7577 2.69594 40.0017 2.69594C53.2453 2.69594 63.9816 13.4323 63.9816 26.6762C63.9816 39.9198 53.2453 50.6562 40.0017 50.6562C26.7641 50.6409 16.037 39.9135 16.0214 26.6762ZM42.6659 74.6362C42.6659 76.1076 41.4731 77.3008 40.0013 77.3008C38.5299 77.3008 37.3371 76.1076 37.3371 74.6362V58.6493H42.6659V74.6362ZM41.3338 55.9851H38.6692V53.2528C39.1129 53.2751 39.5513 53.3205 40.0013 53.3205C40.4517 53.3205 40.8901 53.2751 41.3335 53.2528V55.9851H41.3338Z" fill="url(#paint8_linear)"/>
</g>
<defs>
<linearGradient id="paint0_linear" x1="68.0795" y1="0.376605" x2="68.0795" y2="84.8983" gradientUnits="userSpaceOnUse">
<stop stop-color="#FC5C7D"/>
<stop offset="0.129" stop-color="#F35E85"/>
<stop offset="0.343" stop-color="#D9659B"/>
<stop offset="0.616" stop-color="#B070BF"/>
<stop offset="0.934" stop-color="#777FF0"/>
<stop offset="1" stop-color="#6A82FB"/>
</linearGradient>
<linearGradient id="paint1_linear" x1="15.7544" y1="0.376586" x2="15.7544" y2="84.8982" gradientUnits="userSpaceOnUse">
<stop stop-color="#FC5C7D"/>
<stop offset="0.129" stop-color="#F35E85"/>
<stop offset="0.343" stop-color="#D9659B"/>
<stop offset="0.616" stop-color="#B070BF"/>
<stop offset="0.934" stop-color="#777FF0"/>
<stop offset="1" stop-color="#6A82FB"/>
</linearGradient>
<linearGradient id="paint2_linear" x1="12.4118" y1="0.376489" x2="12.4118" y2="84.8983" gradientUnits="userSpaceOnUse">
<stop stop-color="#FC5C7D"/>
<stop offset="0.129" stop-color="#F35E85"/>
<stop offset="0.343" stop-color="#D9659B"/>
<stop offset="0.616" stop-color="#B070BF"/>
<stop offset="0.934" stop-color="#777FF0"/>
<stop offset="1" stop-color="#6A82FB"/>
</linearGradient>
<linearGradient id="paint3_linear" x1="40.0015" y1="0.376626" x2="40.0015" y2="84.8982" gradientUnits="userSpaceOnUse">
<stop stop-color="#FC5C7D"/>
<stop offset="0.129" stop-color="#F35E85"/>
<stop offset="0.343" stop-color="#D9659B"/>
<stop offset="0.616" stop-color="#B070BF"/>
<stop offset="0.934" stop-color="#777FF0"/>
<stop offset="1" stop-color="#6A82FB"/>
</linearGradient>
<linearGradient id="paint4_linear" x1="30.6759" y1="0.376661" x2="30.6759" y2="84.8982" gradientUnits="userSpaceOnUse">
<stop stop-color="#FC5C7D"/>
<stop offset="0.129" stop-color="#F35E85"/>
<stop offset="0.343" stop-color="#D9659B"/>
<stop offset="0.616" stop-color="#B070BF"/>
<stop offset="0.934" stop-color="#777FF0"/>
<stop offset="1" stop-color="#6A82FB"/>
</linearGradient>
<linearGradient id="paint5_linear" x1="49.327" y1="0.376661" x2="49.327" y2="84.8982" gradientUnits="userSpaceOnUse">
<stop stop-color="#FC5C7D"/>
<stop offset="0.129" stop-color="#F35E85"/>
<stop offset="0.343" stop-color="#D9659B"/>
<stop offset="0.616" stop-color="#B070BF"/>
<stop offset="0.934" stop-color="#777FF0"/>
<stop offset="1" stop-color="#6A82FB"/>
</linearGradient>
<linearGradient id="paint6_linear" x1="16.0219" y1="0.376679" x2="16.0219" y2="84.8983" gradientUnits="userSpaceOnUse">
<stop stop-color="#FC5C7D"/>
<stop offset="0.129" stop-color="#F35E85"/>
<stop offset="0.343" stop-color="#D9659B"/>
<stop offset="0.616" stop-color="#B070BF"/>
<stop offset="0.934" stop-color="#777FF0"/>
<stop offset="1" stop-color="#6A82FB"/>
</linearGradient>
<linearGradient id="paint7_linear" x1="63.9815" y1="0.376679" x2="63.9815" y2="84.8983" gradientUnits="userSpaceOnUse">
<stop stop-color="#FC5C7D"/>
<stop offset="0.129" stop-color="#F35E85"/>
<stop offset="0.343" stop-color="#D9659B"/>
<stop offset="0.616" stop-color="#B070BF"/>
<stop offset="0.934" stop-color="#777FF0"/>
<stop offset="1" stop-color="#6A82FB"/>
</linearGradient>
<linearGradient id="paint8_linear" x1="40.0015" y1="0.376658" x2="40.0015" y2="84.8983" gradientUnits="userSpaceOnUse">
<stop stop-color="#FC5C7D"/>
<stop offset="0.129" stop-color="#F35E85"/>
<stop offset="0.343" stop-color="#D9659B"/>
<stop offset="0.616" stop-color="#B070BF"/>
<stop offset="0.934" stop-color="#777FF0"/>
<stop offset="1" stop-color="#6A82FB"/>
</linearGradient>
<clipPath id="clip0">
<rect width="80" height="80" fill="white"/>
</clipPath>
</defs>
</svg>
