<svg width="80" height="80" viewBox="0 0 80 80" fill="none" xmlns="http://www.w3.org/2000/svg">
<path d="M38.6667 65.3334H41.3333V68H38.6667V65.3334Z" fill="url(#paint0_linear)"/>
<path d="M78.6667 68.0001H77.3333V20C77.3333 17.0545 74.9455 14.6667 72 14.6667H66.6667V6.66671C66.6667 3.72121 64.2788 1.33337 61.3333 1.33337H29.3333C26.3878 1.33337 24 3.72121 24 6.66671V8.00004H21.3333C18.3878 8.00004 16 10.3879 16 13.3334V14.6667H8C5.0545 14.6667 2.66667 17.0545 2.66667 20V68.0001H1.33333C0.597 68.0001 0 68.5971 0 69.3334V73.3334C0 76.2789 2.38783 78.6667 5.33333 78.6667H74.6667C77.6122 78.6667 80 76.2789 80 73.3334V69.3334C80 68.5971 79.403 68.0001 78.6667 68.0001ZM26.6667 6.66671C26.6667 5.19387 27.8605 4.00004 29.3333 4.00004H61.3333C62.8062 4.00004 64 5.19387 64 6.66671V28C64 29.4729 62.8062 30.6667 61.3333 30.6667H58.6667C58.247 30.6667 57.8518 30.8644 57.6 31.2L54.6667 35.1107L51.7333 31.2C51.4815 30.8644 51.0863 30.6667 50.6667 30.6667H29.3333C27.8605 30.6667 26.6667 29.4729 26.6667 28V6.66671ZM18.6667 13.3334C18.6667 11.8605 19.8605 10.6667 21.3333 10.6667H24V28C24 30.9455 26.3878 33.3334 29.3333 33.3334H46.6667V34.6667C46.6667 36.1395 45.4728 37.3334 44 37.3334H34.6667C34.247 37.3334 33.8518 37.531 33.6 37.8667L30.6667 41.7774L27.7333 37.8667C27.4815 37.531 27.0863 37.3334 26.6667 37.3334H21.3333C19.8605 37.3334 18.6667 36.1395 18.6667 34.6667V13.3334ZM21.3333 40H26L29.6 44.8C30.0418 45.3892 30.8775 45.5085 31.4667 45.0667C31.5677 44.9909 31.6575 44.901 31.7333 44.8L35.3333 40H44C46.9455 40 49.3333 37.6122 49.3333 34.6667V33.3334H50L53.6 38.1334C54.0418 38.7225 54.8775 38.8419 55.4667 38.4C55.5677 38.3242 55.6575 38.2344 55.7333 38.1334L59.3333 33.3334H61.3333C64.2788 33.3334 66.6667 30.9455 66.6667 28V22.6667H69.3333V60.0001H64V58.6667C63.9993 56.4501 62.897 54.3787 61.0587 53.14C63.1665 51.0826 63.2073 47.7061 61.15 45.5981C59.0927 43.4901 55.716 43.4494 53.608 45.5067C51.5 47.5641 51.4593 50.9407 53.5167 53.0487C53.5467 53.0796 53.5772 53.1099 53.608 53.14C51.7697 54.3787 50.6673 56.4501 50.6667 58.6667V60.0001H29.3333V58.6667C29.3327 56.4501 28.2303 54.3787 26.392 53.14C28.4998 51.0826 28.5407 47.7061 26.4833 45.5981C24.426 43.4901 21.0493 43.4494 18.9413 45.5067C16.8333 47.5641 16.7927 50.9407 18.85 53.0487C18.88 53.0796 18.9105 53.1099 18.9413 53.14C17.103 54.3787 16.0007 56.4501 16 58.6667V60.0001H10.6667V22.6667H16V34.6667C16 37.6122 18.3878 40 21.3333 40ZM57.3333 54.6667C59.5425 54.6667 61.3333 56.4576 61.3333 58.6667V60.0001H53.3333V58.6667C53.3333 56.4576 55.1242 54.6667 57.3333 54.6667ZM54.6667 49.3334C54.6667 47.8605 55.8605 46.6667 57.3333 46.6667C58.8062 46.6667 60 47.8605 60 49.3334C60 50.8062 58.8062 52 57.3333 52C55.8605 52 54.6667 50.8062 54.6667 49.3334ZM22.6667 54.6667C24.8758 54.6667 26.6667 56.4576 26.6667 58.6667V60.0001H18.6667V58.6667C18.6667 56.4576 20.4575 54.6667 22.6667 54.6667ZM20 49.3334C20 47.8605 21.1938 46.6667 22.6667 46.6667C24.1395 46.6667 25.3333 47.8605 25.3333 49.3334C25.3333 50.8062 24.1395 52 22.6667 52C21.1938 52 20 50.8062 20 49.3334ZM5.33333 20C5.33333 18.5272 6.52717 17.3334 8 17.3334H16V20H9.33333C8.597 20 8 20.597 8 21.3334V61.3334C8 62.0697 8.597 62.6667 9.33333 62.6667H70.6667C71.403 62.6667 72 62.0697 72 61.3334V21.3334C72 20.597 71.403 20 70.6667 20H66.6667V17.3334H72C73.4728 17.3334 74.6667 18.5272 74.6667 20V68.0001H52C51.6463 68.0001 51.3073 68.1407 51.0573 68.3907L48.7813 70.6667H31.2187L28.9427 68.3907C28.6927 68.1407 28.3537 68.0001 28 68.0001H5.33333V20ZM77.3333 73.3334C77.3333 74.8062 76.1395 76.0001 74.6667 76.0001H5.33333C3.8605 76.0001 2.66667 74.8062 2.66667 73.3334V70.6667H27.448L29.724 72.9427C29.974 73.1927 30.313 73.3334 30.6667 73.3334H49.3333C49.687 73.3334 50.026 73.1927 50.276 72.9427L52.552 70.6667H77.3333V73.3334Z" fill="url(#paint1_linear)"/>
<path d="M38.6667 8H60V10.6667H38.6667V8Z" fill="url(#paint2_linear)"/>
<path d="M30.6667 13.3334H60V16H30.6667V13.3334Z" fill="url(#paint3_linear)"/>
<path d="M30.6667 18.6666H60V21.3333H30.6667V18.6666Z" fill="url(#paint4_linear)"/>
<path d="M30.6667 24H54.6667V26.6667H30.6667V24Z" fill="url(#paint5_linear)"/>
<path d="M33.3333 8H36V10.6667H33.3333V8Z" fill="url(#paint6_linear)"/>
<defs>
<linearGradient id="paint0_linear" x1="40" y1="-1.18542" x2="40" y2="86.6934" gradientUnits="userSpaceOnUse">
<stop stop-color="#FC5C7D"/>
<stop offset="0.129" stop-color="#F35E85"/>
<stop offset="0.343" stop-color="#D9659B"/>
<stop offset="0.616" stop-color="#B070BF"/>
<stop offset="0.934" stop-color="#777FF0"/>
<stop offset="1" stop-color="#6A82FB"/>
</linearGradient>
<linearGradient id="paint1_linear" x1="40" y1="-1.18529" x2="40" y2="86.6934" gradientUnits="userSpaceOnUse">
<stop stop-color="#FC5C7D"/>
<stop offset="0.129" stop-color="#F35E85"/>
<stop offset="0.343" stop-color="#D9659B"/>
<stop offset="0.616" stop-color="#B070BF"/>
<stop offset="0.934" stop-color="#777FF0"/>
<stop offset="1" stop-color="#6A82FB"/>
</linearGradient>
<linearGradient id="paint2_linear" x1="49.3333" y1="-1.18533" x2="49.3333" y2="86.6933" gradientUnits="userSpaceOnUse">
<stop stop-color="#FC5C7D"/>
<stop offset="0.129" stop-color="#F35E85"/>
<stop offset="0.343" stop-color="#D9659B"/>
<stop offset="0.616" stop-color="#B070BF"/>
<stop offset="0.934" stop-color="#777FF0"/>
<stop offset="1" stop-color="#6A82FB"/>
</linearGradient>
<linearGradient id="paint3_linear" x1="45.3333" y1="-1.18529" x2="45.3333" y2="86.6934" gradientUnits="userSpaceOnUse">
<stop stop-color="#FC5C7D"/>
<stop offset="0.129" stop-color="#F35E85"/>
<stop offset="0.343" stop-color="#D9659B"/>
<stop offset="0.616" stop-color="#B070BF"/>
<stop offset="0.934" stop-color="#777FF0"/>
<stop offset="1" stop-color="#6A82FB"/>
</linearGradient>
<linearGradient id="paint4_linear" x1="45.3333" y1="-1.1854" x2="45.3333" y2="86.6934" gradientUnits="userSpaceOnUse">
<stop stop-color="#FC5C7D"/>
<stop offset="0.129" stop-color="#F35E85"/>
<stop offset="0.343" stop-color="#D9659B"/>
<stop offset="0.616" stop-color="#B070BF"/>
<stop offset="0.934" stop-color="#777FF0"/>
<stop offset="1" stop-color="#6A82FB"/>
</linearGradient>
<linearGradient id="paint5_linear" x1="42.6667" y1="-1.18538" x2="42.6667" y2="86.6935" gradientUnits="userSpaceOnUse">
<stop stop-color="#FC5C7D"/>
<stop offset="0.129" stop-color="#F35E85"/>
<stop offset="0.343" stop-color="#D9659B"/>
<stop offset="0.616" stop-color="#B070BF"/>
<stop offset="0.934" stop-color="#777FF0"/>
<stop offset="1" stop-color="#6A82FB"/>
</linearGradient>
<linearGradient id="paint6_linear" x1="34.6666" y1="-1.18533" x2="34.6666" y2="86.6933" gradientUnits="userSpaceOnUse">
<stop stop-color="#FC5C7D"/>
<stop offset="0.129" stop-color="#F35E85"/>
<stop offset="0.343" stop-color="#D9659B"/>
<stop offset="0.616" stop-color="#B070BF"/>
<stop offset="0.934" stop-color="#777FF0"/>
<stop offset="1" stop-color="#6A82FB"/>
</linearGradient>
</defs>
</svg>
