<svg width="80" height="80" viewBox="0 0 80 80" fill="none" xmlns="http://www.w3.org/2000/svg">
<path d="M23.6997 36.3612C20.7299 37.1002 18.6462 39.7686 18.6492 42.8287V51.9979H21.3158V42.8287C21.3158 40.9938 22.5648 39.3944 24.345 38.9492L30.9729 37.2917C31.5662 37.1433 31.9821 36.61 31.9821 35.9987V33.3321C31.9824 32.8265 31.6969 32.3646 31.2447 32.1385C30.0588 31.5518 29.3101 30.3409 29.3154 29.0173V21.3325C29.3154 18.387 31.7033 15.9992 34.6487 15.9992C37.5942 15.9992 39.9817 18.387 39.9817 21.3325V29.0173C39.987 30.3409 39.2386 31.5518 38.0524 32.1385C37.6005 32.3646 37.315 32.8265 37.3154 33.3321V35.9987C37.3154 36.61 37.7312 37.1433 38.3245 37.2917L44.9521 38.9492C46.7323 39.3944 47.9813 40.9938 47.9816 42.8287V51.9979H50.6483V42.8287C50.6513 39.7689 48.5682 37.1006 45.5991 36.3612L39.9817 34.9572V34.0904C41.6552 32.9479 42.6537 31.0503 42.6483 29.0239V21.3325C42.6483 16.9143 39.0669 13.3329 34.6487 13.3329C30.2305 13.3329 26.6491 16.9143 26.6491 21.3325V29.0173C26.6414 31.0459 27.6403 32.9465 29.3158 34.0904V34.9572L23.6997 36.3612Z" fill="url(#paint0_linear)"/>
<path d="M23.9825 45.3317H26.6487V54.6646H23.9825V45.3317Z" fill="url(#paint1_linear)"/>
<path d="M42.6483 45.3317H45.3147V54.6646H42.6483V45.3317Z" fill="url(#paint2_linear)"/>
<path d="M13.3159 74.6637H63.9805C66.9259 74.6637 69.3137 72.2758 69.3137 69.3304V58.6641H75.98C76.7164 58.6641 77.3133 58.0672 77.3133 57.3308V35.9983C77.3133 33.0529 74.9255 30.6654 71.9804 30.6654H61.3141V6.66624C61.3141 5.93021 60.7172 5.33325 59.9808 5.33325H9.31625C8.57989 5.33325 7.98293 5.93021 7.98293 6.66624V69.3304C7.98293 72.2758 10.3708 74.6637 13.3159 74.6637ZM74.6467 35.9983V55.9975H69.3137V35.9983C69.3137 34.5256 70.5077 33.3317 71.9804 33.3317C73.4528 33.332 74.6467 34.5256 74.6467 35.9983ZM67.3885 33.332C66.9086 34.1391 66.6528 35.0595 66.6471 35.9987V69.3304C66.6471 70.8031 65.4532 71.997 63.9805 71.997C62.5081 71.997 61.3141 70.8031 61.3141 69.3304V33.332H67.3885ZM10.6496 7.99956H58.6475V69.3304C58.6462 70.2668 58.893 71.187 59.3635 71.997H13.3159C11.8435 71.997 10.6496 70.8031 10.6496 69.3304V7.99956Z" fill="url(#paint3_linear)"/>
<path d="M29.3154 58.6641H45.3146V61.3307H29.3154V58.6641Z" fill="url(#paint4_linear)"/>
<path d="M18.6492 63.9974H50.6479V66.6637H18.6492V63.9974Z" fill="url(#paint5_linear)"/>
<path d="M23.9825 58.6641H26.6487V61.3307H23.9825V58.6641Z" fill="url(#paint6_linear)"/>
<path d="M11.9829 79.9965H38.6483V77.3299H11.9829C8.30276 77.3256 5.32096 74.3434 5.31629 70.6636V61.3307H2.64998V70.6636C2.65565 75.8155 6.8307 79.9905 11.9829 79.9965Z" fill="url(#paint7_linear)"/>
<path d="M41.315 77.33H43.9816V79.9966H41.315V77.33Z" fill="url(#paint8_linear)"/>
<path d="M63.9804 5.33296V19.9992H66.6471V5.33296C66.6471 2.38784 64.2592 0 61.3141 0H49.3146V2.66664H61.3141C62.7868 2.66664 63.9804 3.86057 63.9804 5.33296Z" fill="url(#paint9_linear)"/>
<path d="M43.9813 0H46.6479V2.66665H43.9813V0Z" fill="url(#paint10_linear)"/>
<path d="M14.6492 11.9995H22.6488V14.6662H14.6492V11.9995Z" fill="url(#paint11_linear)"/>
<path d="M14.6492 17.3325H22.6488V19.9992H14.6492V17.3325Z" fill="url(#paint12_linear)"/>
<path d="M45.3146 11.9995H54.6476V14.6662H45.3146V11.9995Z" fill="url(#paint13_linear)"/>
<path d="M45.3146 17.3325H54.6476V19.9992H45.3146V17.3325Z" fill="url(#paint14_linear)"/>
<defs>
<linearGradient id="paint0_linear" x1="34.6485" y1="0.377344" x2="34.6485" y2="81.9192" gradientUnits="userSpaceOnUse">
<stop stop-color="#FC5C7D"/>
<stop offset="0.129" stop-color="#F35E85"/>
<stop offset="0.343" stop-color="#D9659B"/>
<stop offset="0.616" stop-color="#B070BF"/>
<stop offset="0.934" stop-color="#777FF0"/>
<stop offset="1" stop-color="#6A82FB"/>
</linearGradient>
<linearGradient id="paint1_linear" x1="25.3155" y1="0.377269" x2="25.3155" y2="81.9194" gradientUnits="userSpaceOnUse">
<stop stop-color="#FC5C7D"/>
<stop offset="0.129" stop-color="#F35E85"/>
<stop offset="0.343" stop-color="#D9659B"/>
<stop offset="0.616" stop-color="#B070BF"/>
<stop offset="0.934" stop-color="#777FF0"/>
<stop offset="1" stop-color="#6A82FB"/>
</linearGradient>
<linearGradient id="paint2_linear" x1="43.9814" y1="0.377269" x2="43.9814" y2="81.9194" gradientUnits="userSpaceOnUse">
<stop stop-color="#FC5C7D"/>
<stop offset="0.129" stop-color="#F35E85"/>
<stop offset="0.343" stop-color="#D9659B"/>
<stop offset="0.616" stop-color="#B070BF"/>
<stop offset="0.934" stop-color="#777FF0"/>
<stop offset="1" stop-color="#6A82FB"/>
</linearGradient>
<linearGradient id="paint3_linear" x1="42.6481" y1="0.377311" x2="42.6481" y2="81.9192" gradientUnits="userSpaceOnUse">
<stop stop-color="#FC5C7D"/>
<stop offset="0.129" stop-color="#F35E85"/>
<stop offset="0.343" stop-color="#D9659B"/>
<stop offset="0.616" stop-color="#B070BF"/>
<stop offset="0.934" stop-color="#777FF0"/>
<stop offset="1" stop-color="#6A82FB"/>
</linearGradient>
<linearGradient id="paint4_linear" x1="37.315" y1="0.377972" x2="37.315" y2="81.9188" gradientUnits="userSpaceOnUse">
<stop stop-color="#FC5C7D"/>
<stop offset="0.129" stop-color="#F35E85"/>
<stop offset="0.343" stop-color="#D9659B"/>
<stop offset="0.616" stop-color="#B070BF"/>
<stop offset="0.934" stop-color="#777FF0"/>
<stop offset="1" stop-color="#6A82FB"/>
</linearGradient>
<linearGradient id="paint5_linear" x1="34.6485" y1="0.377991" x2="34.6485" y2="81.919" gradientUnits="userSpaceOnUse">
<stop stop-color="#FC5C7D"/>
<stop offset="0.129" stop-color="#F35E85"/>
<stop offset="0.343" stop-color="#D9659B"/>
<stop offset="0.616" stop-color="#B070BF"/>
<stop offset="0.934" stop-color="#777FF0"/>
<stop offset="1" stop-color="#6A82FB"/>
</linearGradient>
<linearGradient id="paint6_linear" x1="25.3155" y1="0.377972" x2="25.3155" y2="81.9188" gradientUnits="userSpaceOnUse">
<stop stop-color="#FC5C7D"/>
<stop offset="0.129" stop-color="#F35E85"/>
<stop offset="0.343" stop-color="#D9659B"/>
<stop offset="0.616" stop-color="#B070BF"/>
<stop offset="0.934" stop-color="#777FF0"/>
<stop offset="1" stop-color="#6A82FB"/>
</linearGradient>
<linearGradient id="paint7_linear" x1="20.6491" y1="0.377224" x2="20.6491" y2="81.9191" gradientUnits="userSpaceOnUse">
<stop stop-color="#FC5C7D"/>
<stop offset="0.129" stop-color="#F35E85"/>
<stop offset="0.343" stop-color="#D9659B"/>
<stop offset="0.616" stop-color="#B070BF"/>
<stop offset="0.934" stop-color="#777FF0"/>
<stop offset="1" stop-color="#6A82FB"/>
</linearGradient>
<linearGradient id="paint8_linear" x1="42.6481" y1="0.377817" x2="42.6481" y2="81.9191" gradientUnits="userSpaceOnUse">
<stop stop-color="#FC5C7D"/>
<stop offset="0.129" stop-color="#F35E85"/>
<stop offset="0.343" stop-color="#D9659B"/>
<stop offset="0.616" stop-color="#B070BF"/>
<stop offset="0.934" stop-color="#777FF0"/>
<stop offset="1" stop-color="#6A82FB"/>
</linearGradient>
<linearGradient id="paint9_linear" x1="57.9808" y1="0.377348" x2="57.9808" y2="81.9192" gradientUnits="userSpaceOnUse">
<stop stop-color="#FC5C7D"/>
<stop offset="0.129" stop-color="#F35E85"/>
<stop offset="0.343" stop-color="#D9659B"/>
<stop offset="0.616" stop-color="#B070BF"/>
<stop offset="0.934" stop-color="#777FF0"/>
<stop offset="1" stop-color="#6A82FB"/>
</linearGradient>
<linearGradient id="paint10_linear" x1="45.3147" y1="0.377348" x2="45.3147" y2="81.9193" gradientUnits="userSpaceOnUse">
<stop stop-color="#FC5C7D"/>
<stop offset="0.129" stop-color="#F35E85"/>
<stop offset="0.343" stop-color="#D9659B"/>
<stop offset="0.616" stop-color="#B070BF"/>
<stop offset="0.934" stop-color="#777FF0"/>
<stop offset="1" stop-color="#6A82FB"/>
</linearGradient>
<linearGradient id="paint11_linear" x1="18.6492" y1="0.377237" x2="18.6492" y2="81.9195" gradientUnits="userSpaceOnUse">
<stop stop-color="#FC5C7D"/>
<stop offset="0.129" stop-color="#F35E85"/>
<stop offset="0.343" stop-color="#D9659B"/>
<stop offset="0.616" stop-color="#B070BF"/>
<stop offset="0.934" stop-color="#777FF0"/>
<stop offset="1" stop-color="#6A82FB"/>
</linearGradient>
<linearGradient id="paint12_linear" x1="18.6492" y1="0.377365" x2="18.6492" y2="81.9192" gradientUnits="userSpaceOnUse">
<stop stop-color="#FC5C7D"/>
<stop offset="0.129" stop-color="#F35E85"/>
<stop offset="0.343" stop-color="#D9659B"/>
<stop offset="0.616" stop-color="#B070BF"/>
<stop offset="0.934" stop-color="#777FF0"/>
<stop offset="1" stop-color="#6A82FB"/>
</linearGradient>
<linearGradient id="paint13_linear" x1="49.9812" y1="0.377237" x2="49.9812" y2="81.9195" gradientUnits="userSpaceOnUse">
<stop stop-color="#FC5C7D"/>
<stop offset="0.129" stop-color="#F35E85"/>
<stop offset="0.343" stop-color="#D9659B"/>
<stop offset="0.616" stop-color="#B070BF"/>
<stop offset="0.934" stop-color="#777FF0"/>
<stop offset="1" stop-color="#6A82FB"/>
</linearGradient>
<linearGradient id="paint14_linear" x1="49.9812" y1="0.377365" x2="49.9812" y2="81.9192" gradientUnits="userSpaceOnUse">
<stop stop-color="#FC5C7D"/>
<stop offset="0.129" stop-color="#F35E85"/>
<stop offset="0.343" stop-color="#D9659B"/>
<stop offset="0.616" stop-color="#B070BF"/>
<stop offset="0.934" stop-color="#777FF0"/>
<stop offset="1" stop-color="#6A82FB"/>
</linearGradient>
</defs>
</svg>
