<svg width="80" height="80" viewBox="0 0 80 80" fill="none" xmlns="http://www.w3.org/2000/svg">
<path d="M66.1417 14.4927L61.1417 3.24266C61.0436 3.02172 60.8835 2.83398 60.6809 2.70217C60.4782 2.57036 60.2417 2.50013 60 2.5H20C19.7582 2.49999 19.5216 2.57011 19.3188 2.70187C19.116 2.83363 18.9559 3.02137 18.8577 3.24234L13.8577 14.4923C13.7865 14.6521 13.7498 14.8251 13.75 15V18.75C13.7495 20.0621 14.1622 21.341 14.9293 22.4053C15.6965 23.4697 16.7793 24.2656 18.0242 24.6801C19.269 25.0946 20.6128 25.1066 21.8649 24.7145C23.117 24.3224 24.2139 23.5461 25 22.4956C25.5814 23.273 26.336 23.9042 27.2039 24.3389C28.0719 24.7737 29.0293 25 30 25C30.9707 25 31.9281 24.7737 32.7961 24.3389C33.664 23.9042 34.4186 23.273 35 22.4956C35.5814 23.273 36.336 23.9042 37.2039 24.3389C38.0719 24.7737 39.0293 25 40 25C40.9707 25 41.9281 24.7737 42.7961 24.3389C43.664 23.9042 44.4186 23.273 45 22.4956C45.5814 23.273 46.336 23.9042 47.2039 24.3389C48.0719 24.7737 49.0293 25 50 25C50.9707 25 51.9281 24.7737 52.7961 24.3389C53.664 23.9042 54.4186 23.273 55 22.4956C55.7861 23.5461 56.883 24.3224 58.1351 24.7145C59.3872 25.1066 60.731 25.0946 61.9758 24.6801C63.2207 24.2656 64.3035 23.4697 65.0707 22.4053C65.8378 21.341 66.2505 20.0621 66.25 18.75V15C66.25 14.8252 66.2131 14.6523 66.1417 14.4927ZM63.0766 13.75H56.0026L54.0583 5H59.1875L63.0766 13.75ZM26.5583 13.75L28.5027 5H34.8534L33.8812 13.75H26.5583ZM37.3687 5H42.6312L43.6034 13.75H36.3966L37.3687 5ZM46.1187 13.75L45.1466 5H51.4973L53.4417 13.75H46.1187ZM20.8125 5H25.9419L23.9973 13.75H16.9234L20.8125 5ZM20 22.5C19.0058 22.4989 18.0526 22.1034 17.3496 21.4004C16.6466 20.6974 16.2511 19.7442 16.25 18.75V16.25H23.75V18.75C23.7489 19.7442 23.3534 20.6974 22.6504 21.4004C21.9474 22.1034 20.9942 22.4989 20 22.5ZM30 22.5C29.0058 22.4988 28.0526 22.1034 27.3496 21.4004C26.6466 20.6974 26.2512 19.7442 26.25 18.75V16.25H33.75V18.75C33.7488 19.7442 33.3534 20.6974 32.6504 21.4004C31.9474 22.1034 30.9942 22.4988 30 22.5ZM40 22.5C39.0058 22.4988 38.0526 22.1034 37.3496 21.4004C36.6466 20.6974 36.2512 19.7442 36.25 18.75V16.25H43.75V18.75C43.7488 19.7442 43.3534 20.6974 42.6504 21.4004C41.9474 22.1034 40.9942 22.4988 40 22.5ZM50 22.5C49.0058 22.4988 48.0526 22.1034 47.3496 21.4004C46.6466 20.6974 46.2512 19.7442 46.25 18.75V16.25H53.75V18.75C53.7488 19.7442 53.3534 20.6974 52.6504 21.4004C51.9474 22.1034 50.9942 22.4988 50 22.5ZM63.75 18.75C63.75 19.7446 63.3549 20.6984 62.6516 21.4017C61.9484 22.1049 60.9946 22.5 60 22.5C59.0054 22.5 58.0516 22.1049 57.3483 21.4017C56.6451 20.6984 56.25 19.7446 56.25 18.75V16.25H63.75V18.75Z" fill="url(#paint0_linear)"/>
<path d="M38.75 70H41.25V72.5H38.75V70Z" fill="url(#paint1_linear)"/>
<path d="M57.5 71.25C57.4989 72.2442 57.1034 73.1974 56.4004 73.9004C55.6974 74.6034 54.7442 74.9989 53.75 75H26.25C25.2558 74.9989 24.3026 74.6034 23.5996 73.9004C22.8966 73.1974 22.5011 72.2442 22.5 71.25V27.5H20V71.25C20.0019 72.907 20.6609 74.4957 21.8326 75.6674C23.0043 76.8391 24.593 77.4981 26.25 77.5H53.75C55.407 77.4981 56.9957 76.8391 58.1674 75.6674C59.3391 74.4957 59.9981 72.907 60 71.25V27.5H57.5V71.25Z" fill="url(#paint2_linear)"/>
<path d="M26.25 36.25C26.2512 37.0679 26.5193 37.8632 27.0137 38.5148C27.5081 39.1665 28.2017 39.639 28.9891 39.8604L31.2873 49.0531C31.3549 49.3236 31.511 49.5636 31.7307 49.7352C31.9505 49.9068 32.2212 50 32.5 50H47.5C47.7788 50 48.0496 49.9068 48.2693 49.7352C48.489 49.5636 48.6451 49.3236 48.7127 49.0531L51.011 39.8604C51.883 39.6157 52.637 39.0636 53.1336 38.3061C53.6302 37.5486 53.8359 36.637 53.7127 35.7397C53.5894 34.8424 53.1456 34.02 52.4631 33.4245C51.7807 32.829 50.9058 32.5006 50 32.5H47.0225L48.618 29.309L46.382 28.1909L44.2275 32.5H35.7725L33.618 28.1909L31.382 29.309L32.9775 32.5H30C29.0058 32.5011 28.0526 32.8966 27.3496 33.5996C26.6466 34.3026 26.2512 35.2558 26.25 36.25ZM48.3991 40L47.7741 42.5H44.541L44.8535 40H48.3991ZM42.0216 42.5H37.9784L37.6659 40H42.3341L42.0216 42.5ZM41.7091 45L41.3966 47.5H38.6034L38.2909 45H41.7091ZM35.1466 40L35.4591 42.5H32.2259L31.6009 40H35.1466ZM32.8509 45H35.7716L36.0841 47.5H33.4759L32.8509 45ZM43.916 47.5L44.2285 45H47.1491L46.5241 47.5H43.916ZM51.25 36.25C51.2496 36.5814 51.1178 36.8991 50.8835 37.1335C50.6492 37.3678 50.3314 37.4996 50 37.5H30C29.6685 37.5 29.3505 37.3683 29.1161 37.1339C28.8817 36.8994 28.75 36.5815 28.75 36.25C28.75 35.9185 28.8817 35.6005 29.1161 35.3661C29.3505 35.1317 29.6685 35 30 35H50C50.3314 35.0004 50.6492 35.1322 50.8835 35.3665C51.1178 35.6008 51.2496 35.9186 51.25 36.25Z" fill="url(#paint3_linear)"/>
<path d="M28.75 58.75H51.25V61.25H28.75V58.75Z" fill="url(#paint4_linear)"/>
<path d="M28.75 63.75H51.25V66.25H28.75V63.75Z" fill="url(#paint5_linear)"/>
<path d="M36.25 53.75H51.25V56.25H36.25V53.75Z" fill="url(#paint6_linear)"/>
<path d="M31.25 53.75H33.75V56.25H31.25V53.75Z" fill="url(#paint7_linear)"/>
<defs>
<linearGradient id="paint0_linear" x1="40" y1="2.07828" x2="40" y2="65.3564" gradientUnits="userSpaceOnUse">
<stop stop-color="#FC5C7D"/>
<stop offset="0.129" stop-color="#F35E85"/>
<stop offset="0.343" stop-color="#D9659B"/>
<stop offset="0.616" stop-color="#B070BF"/>
<stop offset="0.934" stop-color="#777FF0"/>
<stop offset="1" stop-color="#6A82FB"/>
</linearGradient>
<linearGradient id="paint1_linear" x1="40" y1="2.07828" x2="40" y2="65.3564" gradientUnits="userSpaceOnUse">
<stop stop-color="#FC5C7D"/>
<stop offset="0.129" stop-color="#F35E85"/>
<stop offset="0.343" stop-color="#D9659B"/>
<stop offset="0.616" stop-color="#B070BF"/>
<stop offset="0.934" stop-color="#777FF0"/>
<stop offset="1" stop-color="#6A82FB"/>
</linearGradient>
<linearGradient id="paint2_linear" x1="40" y1="2.07828" x2="40" y2="65.3564" gradientUnits="userSpaceOnUse">
<stop stop-color="#FC5C7D"/>
<stop offset="0.129" stop-color="#F35E85"/>
<stop offset="0.343" stop-color="#D9659B"/>
<stop offset="0.616" stop-color="#B070BF"/>
<stop offset="0.934" stop-color="#777FF0"/>
<stop offset="1" stop-color="#6A82FB"/>
</linearGradient>
<linearGradient id="paint3_linear" x1="40" y1="2.07826" x2="40" y2="65.3564" gradientUnits="userSpaceOnUse">
<stop stop-color="#FC5C7D"/>
<stop offset="0.129" stop-color="#F35E85"/>
<stop offset="0.343" stop-color="#D9659B"/>
<stop offset="0.616" stop-color="#B070BF"/>
<stop offset="0.934" stop-color="#777FF0"/>
<stop offset="1" stop-color="#6A82FB"/>
</linearGradient>
<linearGradient id="paint4_linear" x1="40" y1="2.07828" x2="40" y2="65.3564" gradientUnits="userSpaceOnUse">
<stop stop-color="#FC5C7D"/>
<stop offset="0.129" stop-color="#F35E85"/>
<stop offset="0.343" stop-color="#D9659B"/>
<stop offset="0.616" stop-color="#B070BF"/>
<stop offset="0.934" stop-color="#777FF0"/>
<stop offset="1" stop-color="#6A82FB"/>
</linearGradient>
<linearGradient id="paint5_linear" x1="40" y1="2.07828" x2="40" y2="65.3564" gradientUnits="userSpaceOnUse">
<stop stop-color="#FC5C7D"/>
<stop offset="0.129" stop-color="#F35E85"/>
<stop offset="0.343" stop-color="#D9659B"/>
<stop offset="0.616" stop-color="#B070BF"/>
<stop offset="0.934" stop-color="#777FF0"/>
<stop offset="1" stop-color="#6A82FB"/>
</linearGradient>
<linearGradient id="paint6_linear" x1="4236.25" y1="87.0025" x2="4236.25" y2="1099.45" gradientUnits="userSpaceOnUse">
<stop stop-color="#FC5C7D"/>
<stop offset="0.129" stop-color="#F35E85"/>
<stop offset="0.343" stop-color="#D9659B"/>
<stop offset="0.616" stop-color="#B070BF"/>
<stop offset="0.934" stop-color="#777FF0"/>
<stop offset="1" stop-color="#6A82FB"/>
</linearGradient>
<linearGradient id="paint7_linear" x1="551.25" y1="87.0025" x2="551.25" y2="1099.45" gradientUnits="userSpaceOnUse">
<stop stop-color="#FC5C7D"/>
<stop offset="0.129" stop-color="#F35E85"/>
<stop offset="0.343" stop-color="#D9659B"/>
<stop offset="0.616" stop-color="#B070BF"/>
<stop offset="0.934" stop-color="#777FF0"/>
<stop offset="1" stop-color="#6A82FB"/>
</linearGradient>
</defs>
</svg>
